<svg xmlns="http://www.w3.org/2000/svg" enable-background="new 0 0 48 48" viewBox="0 0 48 48" id="Sword"><path d="M5.649,48c-0.254,0-0.508-0.097-0.703-0.289l-3.648-3.607c-0.19-0.188-0.297-0.443-0.297-0.711
		c0-0.267,0.107-0.523,0.297-0.711L6.77,37.27c0.39-0.385,1.017-0.385,1.406,0l3.648,3.607c0.19,0.188,0.297,0.443,0.297,0.711
		c0,0.267-0.107,0.523-0.297,0.711l-5.472,5.412C6.158,47.903,5.904,48,5.649,48z M3.423,43.393l2.226,2.201l4.05-4.006
		l-2.226-2.201L3.423,43.393z" fill="#ffffff" class="color000000 svgShape"></path><path d="M13.857,45.294c-0.254,0-0.508-0.097-0.703-0.289l-9.12-9.02c-0.19-0.188-0.297-0.443-0.297-0.711s0.107-0.523,0.297-0.711
		l3.648-3.607c0.39-0.385,1.017-0.385,1.406,0l9.12,9.02c0.19,0.188,0.297,0.443,0.297,0.711s-0.107,0.523-0.297,0.711l-3.648,3.607
		C14.366,45.197,14.112,45.294,13.857,45.294z M6.16,35.274l7.698,7.613l2.226-2.201l-7.698-7.613L6.16,35.274z" fill="#ffffff" class="color000000 svgShape"></path><path d="M15.681 39.88c-.254 0-.508-.097-.703-.289l-5.47-5.41c-.19-.188-.297-.443-.297-.711s.107-.523.297-.711l8.32-8.229c.39-.385 1.017-.385 1.406 0l5.47 5.41c.19.188.297.443.297.711s-.107.523-.297.711l-8.32 8.229C16.189 39.783 15.936 39.88 15.681 39.88zM11.633 33.47l4.048 4.004 6.898-6.823-4.048-4.004L11.633 33.47zM29.472 26.24c-.254 0-.509-.097-.703-.289l-5.47-5.41c-.19-.188-.297-.443-.297-.711s.107-.523.297-.711l19.04-18.83c.388-.384 1.013-.386 1.404-.002l1.181 1.16c1.34 1.328 2.075 3.09 2.076 4.962 0 1.873-.736 3.635-2.073 4.961l-.001.001-14.75 14.58C29.979 26.144 29.726 26.24 29.472 26.24zM25.424 19.83l4.048 4.004L43.519 9.949c.954-.948 1.48-2.205 1.48-3.54-.001-1.335-.526-2.592-1.481-3.539l-.475-.466L25.424 19.83zM44.222 10.66h.01H44.222zM42.35 48c-.254 0-.509-.097-.703-.289l-5.473-5.412c-.19-.188-.297-.443-.297-.711s.106-.523.297-.711l3.648-3.607c.389-.385 1.018-.385 1.406 0l5.472 5.412c.19.188.297.443.297.711s-.106.523-.297.711l-3.647 3.607C42.858 47.903 42.604 48 42.35 48zM38.299 41.588l4.051 4.006 2.226-2.201-4.05-4.006L38.299 41.588z" fill="#ffffff" class="color000000 svgShape"></path><path d="M34.142,45.294c-0.254,0-0.508-0.097-0.703-0.289l-3.648-3.607c-0.19-0.188-0.297-0.443-0.297-0.711
		s0.106-0.523,0.297-0.711l9.12-9.02c0.389-0.385,1.016-0.385,1.406,0l3.648,3.607c0.19,0.188,0.297,0.443,0.297,0.711
		s-0.106,0.523-0.297,0.711l-9.12,9.02C34.65,45.197,34.396,45.294,34.142,45.294z M31.915,40.687l2.227,2.201l7.698-7.613
		l-2.227-2.201L31.915,40.687z" fill="#ffffff" class="color000000 svgShape"></path><path d="M32.321,39.88c-0.254,0-0.509-0.097-0.703-0.289l-28.54-28.22C1.74,10.044,1.003,8.282,1.004,6.409
		c0-1.873,0.736-3.634,2.073-4.959L4.26,0.287c0.391-0.384,1.016-0.382,1.404,0.002l32.83,32.47c0.19,0.188,0.297,0.444,0.297,0.711
		c0,0.268-0.106,0.523-0.297,0.711l-5.47,5.41C32.83,39.783,32.575,39.88,32.321,39.88z M4.959,2.404L4.482,2.873
		C3.53,3.817,3.004,5.074,3.004,6.409c0,1.336,0.526,2.593,1.481,3.541l27.836,27.523l4.048-4.004L4.959,2.404z" fill="#ffffff" class="color000000 svgShape"></path></svg>